<?xml version="1.0" encoding="utf-8"?>
<!-- Generator: Adobe Illustrator 22.0.1, SVG Export Plug-In . SVG Version: 6.00 Build 0)  -->
<svg version="1.1" id="Layer_1" xmlns="http://www.w3.org/2000/svg" xmlns:xlink="http://www.w3.org/1999/xlink" x="0px" y="0px"
	 viewBox="0 0 1000 817.1" style="enable-background:new 0 0 1000 817.1;" xml:space="preserve">
<style type="text/css">
	.st0{opacity:0.1;}
	.st1{fill:#13B15F;}
	.st2{fill:#2E9952;}
	.st3{fill:#E9A9A7;}
	.st4{fill:#E5A400;}
	.st5{fill:#EFB529;}
	.st6{fill:#EFBAB6;}
	.st7{fill:#C24F52;}
	.st8{fill:#BD9492;}
	.st9{fill:#E5BF33;}
</style>
<g>
	<g>
		<g class="st0">
			<ellipse transform="matrix(0.7071 -0.7071 0.7071 0.7071 -105.2856 458.6799)" cx="501" cy="356.4" rx="284.5" ry="284.5"/>
			<path d="M509.5,232.5c37.5,0,67.8-30.4,67.8-67.8c0-37.5-30.4-67.8-67.8-67.8c-37.5,0-67.8,30.4-67.8,67.8
				C441.6,202.2,472,232.5,509.5,232.5z"/>
			<path d="M741,328.2c-1.8-0.4-3.6,0.7-4,2.5c0,0-0.2,0.8-0.7,2.4c-0.5,1.5-1.4,3.7-3,6.2c-0.9,1.4-2.1,3-3.5,4.6
				c-1-2.9-2.2-5.6-3.5-8.1c-1.1-2.1-2.4-4.1-3.7-5.9c-0.6-1-1.3-1.8-2-2.8c-0.3-0.5-0.7-0.9-1-1.3L719,325l-0.3-0.3l-0.6-0.7
				c-0.7-0.8-1-1.2-2.4-2.5c-1.2-1.2-2.4-2.1-3.5-3c-2.4-1.7-5.1-3.3-8.1-4.4c-6-2.2-13.4-2.2-19.7,0.7c-3.2,1.4-6,3.5-8.3,5.9
				c-2.3,2.5-4,5.4-5.1,8.3c-2.2,5.9-2.2,11.8-1.2,16.8c1,5.1,3,9.3,5.1,13.1l1.8,3c0.3,0.4,1.6,2.3,2.4,3.2
				c1.9,2.1,4.1,3.8,6.5,5.1c2.8,1.5,5.7,2.4,8.4,2.8c-2.3,1-4.7,1.9-7.1,2.6c-4.7,1.4-9.3,2.2-13.4,2.6c-1.2,0.1-2.4,0.2-3.6,0.3
				c-20.9-61.2-87.3-105.9-166-105.9c-32.1,0-62.1,7.4-87.8,20.4c-21.1-25.4-62.4-29.3-69.5-29.8c0,0,0,0,0,0c-0.1,0-0.2,0-0.3,0
				c-0.5,0-0.8,0-0.8,0s-16.5,49.2,5.3,80.9c0.8,1.2,1.7,2.3,2.5,3.5c-4.6,7-8.6,14.3-11.9,21.9c-4.7,10.9-15.4,18-27.3,18h0v0.3
				c-0.7-0.2-1.3-0.3-2-0.3c-8.3,0-15,15.7-15,35.1c0,0,0,0,0,0l0,0v0c0,19.4,6.7,35.1,15,35.1c0.7,0,1.3-0.1,2-0.3v0.3h0
				c12.9,0,24.6,7.3,30.3,18.8c9.5,19.3,23.8,36.6,41.5,50.6v46h0c0,0.1,0,0.3,0,0.4c0,9.2,15.7,16.6,35.1,16.6
				c19.4,0,35.1-7.4,35.1-16.6c0-0.1,0-0.3,0-0.4h0v-12.2c15.2,3.7,31.2,5.7,47.8,5.7c15.3,0,30.1-1.7,44.2-4.9v11.3h0
				c0,0.1,0,0.3,0,0.4c0,9.2,15.7,16.6,35.1,16.6c19.4,0,35.1-7.4,35.1-16.6c0-0.1,0-0.3,0-0.4h0v-43.2
				c35.9-26.9,58.5-66.3,58.5-110.2c0-7-0.6-13.8-1.7-20.5c5.2-0.2,11-0.8,17.4-2.3c6.5-1.5,13.5-4,20.6-8.5c3.5-2.3,7-5.1,10.2-8.9
				c3.1-3.7,5.8-8.4,7.2-13.7c0.7-2.6,1.1-5.3,1.2-8c0.9-0.9,1.7-1.9,2.5-2.8c3.4-4.1,5.5-8.3,6.9-11.8c1.3-3.6,1.9-6.5,2.1-8.5
				c0.2-2,0.2-3.1,0.2-3.1v-0.1C743.6,329.9,742.5,328.5,741,328.2z M700.4,339.7C700.3,339.6,700.4,339.7,700.4,339.7L700.4,339.7z
				 M691.8,350.6c-2.2-5.3-2.2-10.8-0.6-13c0.7-1.1,1.5-1.5,2.2-1.7c0.8-0.2,1.6-0.1,2.8,0.4c0.6,0.3,1.3,0.7,2,1.2
				c0.4,0.3,0.7,0.6,0.9,0.8c0-0.1,0.9,0.9,1.4,1.6l0,0l0.2,0.2l0.4,0.5c0.2,0.3,0.5,0.6,0.7,0.9c0.5,0.6,1,1.2,1.4,1.9
				c0.9,1.2,1.7,2.5,2.3,3.7c1.4,2.5,2.3,4.9,2.7,7c0.2,0.9,0.2,1.7,0.2,2.4c-2.8,0.6-5.7,0.9-8.3,0.6c-2.3-0.2-4.2-0.9-5.5-1.9
				C693.4,354.1,692.8,353.4,691.8,350.6z"/>
			<polygon points="409.5,162.1 426.9,177.9 424.6,154.5 440.3,137.2 417,139.5 399.6,123.7 402,147.1 386.2,164.4 			"/>
			<rect x="539.8" y="475.9" width="70.2" height="85.7"/>
			<path d="M610,562c0,9.2-15.7,16.6-35.1,16.6c-19.4,0-35.1-7.4-35.1-16.6c0-9.2,15.7-16.6,35.1-16.6
				C594.3,545.4,610,552.9,610,562z"/>
			<rect x="377.7" y="475.9" width="70.2" height="85.7"/>
			<path d="M447.8,562c0,9.2-15.7,16.6-35.1,16.6c-19.4,0-35.1-7.4-35.1-16.6c0-9.2,15.7-16.6,35.1-16.6
				C432.1,545.4,447.8,552.9,447.8,562z"/>
			<path d="M568.8,153.3c0,37.5-30.4,67.8-67.8,67.8c-37.5,0-67.8-30.4-67.8-67.8c0-37.5,30.4-67.8,67.8-67.8
				C538.4,85.4,568.8,115.8,568.8,153.3z"/>
			<path d="M554.8,153.3c0,29.7-24.1,53.9-53.9,53.9c-29.7,0-53.9-24.1-53.9-53.9c0-29.7,24.1-53.9,53.9-53.9
				C530.7,99.4,554.8,123.5,554.8,153.3z"/>
			<path d="M495.3,196.9v-10.2c-7.2-0.3-14.1-2.2-18.2-4.6l3.2-12.5c4.5,2.5,10.8,4.7,17.7,4.7c6.1,0,10.3-2.4,10.3-6.6
				c0-4.1-3.4-6.6-11.3-9.3c-11.4-3.8-19.2-9.2-19.2-19.6c0-9.4,6.6-16.8,18.1-19v-10.1h10.5v9.4c7.2,0.3,12,1.8,15.5,3.5l-3.1,12.1
				c-2.8-1.2-7.7-3.6-15.4-3.6c-6.9,0-9.2,3-9.2,6c0,3.5,3.7,5.8,12.8,9.2c12.7,4.5,17.8,10.4,17.8,20c0,9.5-6.7,17.6-19,19.8v10.9
				H495.3z"/>
			<path d="M410.9,285.6c21.8,31.7,24.1,67.9,5.3,80.9c-18.9,13-51.8-2.2-73.6-33.9c-21.8-31.7-5.3-80.9-5.3-80.9
				S389.1,253.9,410.9,285.6z"/>
			<path d="M343.7,334.3c4.8-4.9,8.5-10.9,10.7-18.2c6.9-23,1.4-47.6-16-64.3c-0.7,0-1.1-0.1-1.1-0.1s-16.5,49.2,5.3,80.9
				C342.9,333.2,343.3,333.7,343.7,334.3z"/>
			<path d="M495.6,261.3c-74.7,0-138.3,40.3-162.5,96.7c-4.7,10.9-15.4,18-27.3,18h0v70.2h0c12.9,0,24.6,7.3,30.3,18.8
				c26.1,53,87.7,90.2,159.5,90.2c95.5,0,172.9-65.8,172.9-147C668.5,327.1,591.1,261.3,495.6,261.3z"/>
			<path d="M303.8,446.1c-8.3,0-15-15.7-15-35.1c0-19.4,6.7-35.1,15-35.1c8.3,0,15,15.7,15,35.1
				C318.9,430.4,312.1,446.1,303.8,446.1z"/>
			<path d="M377.7,371.3c0,5.6-4.5,10.1-10.1,10.1c-5.6,0-10.1-4.5-10.1-10.1c0-5.6,4.5-10.1,10.1-10.1
				C373.1,361.2,377.7,365.8,377.7,371.3z"/>
			<path d="M554.6,302.6c-0.8,0-1.7-0.1-2.5-0.3c-33.5-8-68.8-8-102.3,0c-5.8,1.4-11.7-2.2-13.1-8c-1.4-5.8,2.2-11.7,8-13.1
				c36.8-8.8,75.7-8.8,112.4,0c5.8,1.4,9.4,7.2,8,13.1C563.9,299.2,559.5,302.6,554.6,302.6z"/>
			<path d="M299.9,411.1c0,6.2-2.5,11.2-5.6,11.2c-3.1,0-5.6-5-5.6-11.2c0-6.2,2.5-11.2,5.6-11.2
				C297.4,399.8,299.9,404.9,299.9,411.1z"/>
			<path d="M644.8,366.6c0,0,0.9,0.1,2.7,0.3c1.5,0.1,4,0.3,6.9,0.4c3,0.1,6.7,0,10.8-0.4c4.1-0.5,8.7-1.2,13.4-2.6
				c4.7-1.4,9.5-3.4,13.5-6.2c4-2.8,6.8-6.3,7.5-9.6c0.4-1.7,0.4-3.6,0-5.7c-0.4-2.1-1.3-4.6-2.7-7c-0.7-1.2-1.5-2.5-2.3-3.7
				c-0.4-0.6-0.9-1.3-1.4-1.9c-0.2-0.3-0.5-0.6-0.7-0.9l-0.4-0.5l-0.2-0.2l0-0.1c0.1,0.1-0.3-0.4,0.3,0.3l-0.1-0.1
				c-0.6-0.6-1.5-1.7-1.5-1.7c-0.1-0.2-0.5-0.5-0.9-0.8c-0.7-0.5-1.4-0.9-2-1.2c-1.2-0.4-2-0.5-2.8-0.4c-0.7,0.2-1.5,0.6-2.2,1.7
				c-1.6,2.2-1.6,7.7,0.6,13c1.1,2.8,1.6,3.6,2.9,4.6c1.2,1,3.2,1.7,5.5,1.9c4.6,0.6,10-0.8,14.5-2.6c4.6-1.9,8.5-4.5,11.6-7.2
				c3.1-2.7,5.4-5.5,7-8c1.6-2.5,2.4-4.7,3-6.2c0.5-1.5,0.7-2.4,0.7-2.4c0.4-1.8,2.2-3,4-2.5c1.6,0.3,2.6,1.7,2.6,3.2v0.1
				c0,0,0,1.1-0.2,3.1c-0.2,2-0.8,5-2.1,8.5c-1.4,3.5-3.5,7.7-6.9,11.8c-3.3,4.1-7.8,8.2-13.4,11.7c-5.7,3.4-12.5,6.3-21.2,6.7
				c-4.3,0.1-9.2-0.6-14-3.1c-2.4-1.3-4.6-3-6.5-5.1c-0.8-0.9-2.1-2.7-2.4-3.2l-1.8-3c-2.2-3.8-4.1-8.1-5.1-13.1
				c-1-5-1-10.9,1.2-16.8c1.1-2.9,2.8-5.8,5.1-8.3c2.3-2.5,5.1-4.5,8.3-5.9c6.3-2.9,13.7-2.9,19.7-0.7c3,1.1,5.7,2.6,8.1,4.4
				c1.1,0.9,2.3,1.8,3.5,3c1.4,1.3,1.7,1.7,2.4,2.5l0.6,0.7l0.3,0.3l0.5,0.7c0.3,0.4,0.7,0.9,1,1.3c0.7,0.9,1.4,1.8,2,2.8
				c1.3,1.9,2.5,3.9,3.7,5.9c2.3,4.2,4.2,8.8,5.1,14c1,5.1,0.8,10.8-0.6,16.1c-1.4,5.3-4.1,10-7.2,13.7c-3.1,3.7-6.7,6.6-10.2,8.9
				c-7.1,4.5-14.1,7-20.6,8.5c-13,3.1-23.8,2.5-31.2,1.8c-3.7-0.4-6.5-0.9-8.6-1.3c-1.8-0.4-2.8-0.6-2.8-0.6
				c-5.1-1.1-8.4-6.2-7.3-11.3c1-4.8,5.5-7.9,10.2-7.4L644.8,366.6z"/>
			<polygon points="354.1,96.3 345.5,88.4 333.8,89.5 341.7,80.9 340.5,69.2 349.2,77.1 360.9,75.9 353,84.6 			"/>
			<polygon points="429.1,58.7 415.1,46 396.3,47.9 409,33.9 407.1,15.1 421.2,27.8 440,25.9 427.3,39.9 			"/>
			<polygon points="418.3,166.4 401,150.7 377.7,153 393.4,135.7 391.1,112.3 408.4,128.1 431.8,125.8 416,143.1 			"/>
		</g>
		<g>
			<g>
				
					<ellipse transform="matrix(0.7071 -0.7071 0.7071 0.7071 -104.6288 454.2657)" class="st1" cx="496" cy="353.4" rx="284.5" ry="284.5"/>
				<g>
					<path class="st2" d="M504.5,229.5c37.5,0,67.8-30.4,67.8-67.8c0-37.5-30.4-67.8-67.8-67.8c-37.5,0-67.8,30.4-67.8,67.8
						C436.6,199.2,467,229.5,504.5,229.5z"/>
					<path class="st2" d="M736,325.2c-1.8-0.4-3.6,0.7-4,2.5c0,0-0.2,0.8-0.7,2.4c-0.5,1.5-1.4,3.7-3,6.2c-0.9,1.4-2.1,3-3.5,4.6
						c-1-2.9-2.2-5.6-3.5-8.1c-1.1-2.1-2.4-4.1-3.7-5.9c-0.6-1-1.3-1.8-2-2.8c-0.3-0.5-0.7-0.9-1-1.3L714,322l-0.3-0.3l-0.6-0.7
						c-0.7-0.8-1-1.2-2.4-2.5c-1.2-1.2-2.4-2.1-3.5-3c-2.4-1.7-5.1-3.3-8.1-4.4c-6-2.2-13.4-2.2-19.7,0.7c-3.2,1.4-6,3.5-8.3,5.9
						c-2.3,2.5-4,5.4-5.1,8.3c-2.2,5.9-2.2,11.8-1.2,16.8c1,5.1,3,9.3,5.1,13.1l1.8,3c0.3,0.4,1.6,2.3,2.4,3.2
						c1.9,2.1,4.1,3.8,6.5,5.1c2.8,1.5,5.7,2.4,8.4,2.8c-2.3,1-4.7,1.9-7.1,2.6c-4.7,1.4-9.3,2.2-13.4,2.6c-1.2,0.1-2.4,0.2-3.6,0.3
						c-20.9-61.2-87.3-105.9-166-105.9c-32.1,0-62.1,7.4-87.8,20.4c-21.1-25.4-62.4-29.3-69.5-29.8c0,0,0,0,0,0c-0.1,0-0.2,0-0.3,0
						c-0.5,0-0.8,0-0.8,0s-16.5,49.2,5.3,80.9c0.8,1.2,1.7,2.3,2.5,3.5c-4.6,7-8.6,14.3-11.9,21.9c-4.7,10.9-15.4,18-27.3,18h0v0.3
						c-0.7-0.2-1.3-0.3-2-0.3c-8.3,0-15,15.7-15,35.1c0,0,0,0,0,0l0,0v0c0,19.4,6.7,35.1,15,35.1c0.7,0,1.3-0.1,2-0.3v0.3h0
						c12.9,0,24.6,7.3,30.3,18.8c9.5,19.3,23.8,36.6,41.5,50.6v46h0c0,0.1,0,0.3,0,0.4c0,9.2,15.7,16.6,35.1,16.6
						c19.4,0,35.1-7.4,35.1-16.6c0-0.1,0-0.3,0-0.4h0v-12.2c15.2,3.7,31.2,5.7,47.8,5.7c15.3,0,30.1-1.7,44.2-4.9v11.3h0
						c0,0.1,0,0.3,0,0.4c0,9.2,15.7,16.6,35.1,16.6c19.4,0,35.1-7.4,35.1-16.6c0-0.1,0-0.3,0-0.4h0v-43.2
						c35.9-26.9,58.5-66.3,58.5-110.2c0-7-0.6-13.8-1.7-20.5c5.2-0.2,11-0.8,17.4-2.3c6.5-1.5,13.5-4,20.6-8.5
						c3.5-2.3,7-5.1,10.2-8.9c3.1-3.7,5.8-8.4,7.2-13.7c0.7-2.6,1.1-5.3,1.2-8c0.9-0.9,1.7-1.9,2.5-2.8c3.4-4.1,5.5-8.3,6.9-11.8
						c1.3-3.6,1.9-6.5,2.1-8.5c0.2-2,0.2-3.1,0.2-3.1v-0.1C738.6,326.9,737.5,325.5,736,325.2z M695.4,336.7
						C695.3,336.6,695.4,336.7,695.4,336.7L695.4,336.7z M686.8,347.6c-2.2-5.3-2.2-10.8-0.6-13c0.7-1.1,1.5-1.5,2.2-1.7
						c0.8-0.2,1.6-0.1,2.8,0.4c0.6,0.3,1.3,0.7,2,1.2c0.4,0.3,0.7,0.6,0.9,0.8c0-0.1,0.9,0.9,1.4,1.6l0,0l0.2,0.2l0.4,0.5
						c0.2,0.3,0.5,0.6,0.7,0.9c0.5,0.6,1,1.2,1.4,1.9c0.9,1.2,1.7,2.5,2.3,3.7c1.4,2.5,2.3,4.9,2.7,7c0.2,0.9,0.2,1.7,0.2,2.4
						c-2.8,0.6-5.7,0.9-8.3,0.6c-2.3-0.2-4.2-0.9-5.5-1.9C688.4,351.1,687.8,350.4,686.8,347.6z"/>
					<polygon class="st2" points="404.5,159.1 421.9,174.9 419.6,151.5 435.3,134.2 412,136.5 394.6,120.7 397,144.1 381.2,161.4 
											"/>
				</g>
				<g>
					<g>
						<rect x="534.8" y="472.9" class="st3" width="70.2" height="85.7"/>
					</g>
					<g>
						<path class="st3" d="M605,559c0,9.2-15.7,16.6-35.1,16.6c-19.4,0-35.1-7.4-35.1-16.6c0-9.2,15.7-16.6,35.1-16.6
							C589.3,542.4,605,549.9,605,559z"/>
					</g>
					<g>
						<rect x="372.7" y="472.9" class="st3" width="70.2" height="85.7"/>
					</g>
					<g>
						<path class="st3" d="M442.8,559c0,9.2-15.7,16.6-35.1,16.6c-19.4,0-35.1-7.4-35.1-16.6c0-9.2,15.7-16.6,35.1-16.6
							C427.1,542.4,442.8,549.9,442.8,559z"/>
					</g>
					<g>
						<g>
							<path class="st4" d="M563.8,150.3c0,37.5-30.4,67.8-67.8,67.8c-37.5,0-67.8-30.4-67.8-67.8c0-37.5,30.4-67.8,67.8-67.8
								C533.4,82.4,563.8,112.8,563.8,150.3z"/>
						</g>
						<g>
							<path class="st5" d="M549.8,150.3c0,29.7-24.1,53.9-53.9,53.9c-29.7,0-53.9-24.1-53.9-53.9c0-29.7,24.1-53.9,53.9-53.9
								C525.7,96.4,549.8,120.5,549.8,150.3z"/>
						</g>
						<g>
							<g>
								<path class="st4" d="M490.3,193.9v-10.2c-7.2-0.3-14.1-2.2-18.2-4.6l3.2-12.5c4.5,2.5,10.8,4.7,17.7,4.7
									c6.1,0,10.3-2.4,10.3-6.6c0-4.1-3.4-6.6-11.3-9.3c-11.4-3.8-19.2-9.2-19.2-19.6c0-9.4,6.6-16.8,18.1-19v-10.1h10.5v9.4
									c7.2,0.3,12,1.8,15.5,3.5l-3.1,12.1c-2.8-1.2-7.7-3.6-15.4-3.6c-6.9,0-9.2,3-9.2,6c0,3.5,3.7,5.8,12.8,9.2
									c12.7,4.5,17.8,10.4,17.8,20c0,9.5-6.7,17.6-19,19.8v10.9H490.3z"/>
							</g>
						</g>
					</g>
					<g>
						<path class="st6" d="M405.9,282.6c21.8,31.7,24.1,67.9,5.3,80.9c-18.9,13-51.8-2.2-73.6-33.9c-21.8-31.7-5.3-80.9-5.3-80.9
							S384.1,250.9,405.9,282.6z"/>
					</g>
					<g>
						<path class="st3" d="M338.7,331.3c4.8-4.9,8.5-10.9,10.7-18.2c6.9-23,1.4-47.6-16-64.3c-0.7,0-1.1-0.1-1.1-0.1
							s-16.5,49.2,5.3,80.9C337.9,330.2,338.3,330.7,338.7,331.3z"/>
					</g>
					<g>
						<path class="st6" d="M490.6,258.3c-74.7,0-138.3,40.3-162.5,96.7c-4.7,10.9-15.4,18-27.3,18h0v70.2h0
							c12.9,0,24.6,7.3,30.3,18.8c26.1,53,87.7,90.2,159.5,90.2c95.5,0,172.9-65.8,172.9-147C663.5,324.1,586.1,258.3,490.6,258.3z"
							/>
					</g>
					<g>
						<path class="st3" d="M298.8,443.1c-8.3,0-15-15.7-15-35.1c0-19.4,6.7-35.1,15-35.1c8.3,0,15,15.7,15,35.1
							C313.9,427.4,307.1,443.1,298.8,443.1z"/>
					</g>
					<g>
						<path class="st7" d="M372.7,368.3c0,5.6-4.5,10.1-10.1,10.1c-5.6,0-10.1-4.5-10.1-10.1c0-5.6,4.5-10.1,10.1-10.1
							C368.1,358.2,372.7,362.8,372.7,368.3z"/>
					</g>
					<g>
						<path class="st8" d="M549.6,299.6c-0.8,0-1.7-0.1-2.5-0.3c-33.5-8-68.8-8-102.3,0c-5.8,1.4-11.7-2.2-13.1-8
							c-1.4-5.8,2.2-11.7,8-13.1c36.8-8.8,75.7-8.8,112.4,0c5.8,1.4,9.4,7.2,8,13.1C558.9,296.2,554.5,299.6,549.6,299.6z"/>
					</g>
					<g>
						<path class="st7" d="M294.9,408.1c0,6.2-2.5,11.2-5.6,11.2c-3.1,0-5.6-5-5.6-11.2c0-6.2,2.5-11.2,5.6-11.2
							C292.4,396.8,294.9,401.9,294.9,408.1z"/>
					</g>
					<g>
						<path class="st6" d="M639.8,363.6c0,0,0.9,0.1,2.7,0.3c1.5,0.1,4,0.3,6.9,0.4c3,0.1,6.7,0,10.8-0.4c4.1-0.5,8.7-1.2,13.4-2.6
							c4.7-1.4,9.5-3.4,13.5-6.2c4-2.8,6.8-6.3,7.5-9.6c0.4-1.7,0.4-3.6,0-5.7c-0.4-2.1-1.3-4.6-2.7-7c-0.7-1.2-1.5-2.5-2.3-3.7
							c-0.4-0.6-0.9-1.3-1.4-1.9c-0.2-0.3-0.5-0.6-0.7-0.9l-0.4-0.5l-0.2-0.2l0-0.1c0.1,0.1-0.3-0.4,0.3,0.3l-0.1-0.1
							c-0.6-0.6-1.5-1.7-1.5-1.7c-0.1-0.2-0.5-0.5-0.9-0.8c-0.7-0.5-1.4-0.9-2-1.2c-1.2-0.4-2-0.5-2.8-0.4c-0.7,0.2-1.5,0.6-2.2,1.7
							c-1.6,2.2-1.6,7.7,0.6,13c1.1,2.8,1.6,3.6,2.9,4.6c1.2,1,3.2,1.7,5.5,1.9c4.6,0.6,10-0.8,14.5-2.6c4.6-1.9,8.5-4.5,11.6-7.2
							c3.1-2.7,5.4-5.5,7-8c1.6-2.5,2.4-4.7,3-6.2c0.5-1.5,0.7-2.4,0.7-2.4c0.4-1.8,2.2-3,4-2.5c1.6,0.3,2.6,1.7,2.6,3.2v0.1
							c0,0,0,1.1-0.2,3.1c-0.2,2-0.8,5-2.1,8.5c-1.4,3.5-3.5,7.7-6.9,11.8c-3.3,4.1-7.8,8.2-13.4,11.7c-5.7,3.4-12.5,6.3-21.2,6.7
							c-4.3,0.1-9.2-0.6-14-3.1c-2.4-1.3-4.6-3-6.5-5.1c-0.8-0.9-2.1-2.7-2.4-3.2l-1.8-3c-2.2-3.8-4.1-8.1-5.1-13.1
							c-1-5-1-10.9,1.2-16.8c1.1-2.9,2.8-5.8,5.1-8.3c2.3-2.5,5.1-4.5,8.3-5.9c6.3-2.9,13.7-2.9,19.7-0.7c3,1.1,5.7,2.6,8.1,4.4
							c1.1,0.9,2.3,1.8,3.5,3c1.4,1.3,1.7,1.7,2.4,2.5l0.6,0.7l0.3,0.3l0.5,0.7c0.3,0.4,0.7,0.9,1,1.3c0.7,0.9,1.4,1.8,2,2.8
							c1.3,1.9,2.5,3.9,3.7,5.9c2.3,4.2,4.2,8.8,5.1,14c1,5.1,0.8,10.8-0.6,16.1c-1.4,5.3-4.1,10-7.2,13.7
							c-3.1,3.7-6.7,6.6-10.2,8.9c-7.1,4.5-14.1,7-20.6,8.5c-13,3.1-23.8,2.5-31.2,1.8c-3.7-0.4-6.5-0.9-8.6-1.3
							c-1.8-0.4-2.8-0.6-2.8-0.6c-5.1-1.1-8.4-6.2-7.3-11.3c1-4.8,5.5-7.9,10.2-7.4L639.8,363.6z"/>
					</g>
					<g>
						<polygon class="st9" points="349.1,93.3 340.5,85.4 328.8,86.5 336.7,77.9 335.5,66.2 344.2,74.1 355.9,72.9 348,81.6 						
							"/>
					</g>
					<g>
						<polygon class="st9" points="424.1,55.7 410.1,43 391.3,44.9 404,30.9 402.1,12.1 416.2,24.8 435,22.9 422.3,36.9 						"/>
					</g>
					<g>
						<polygon class="st9" points="413.3,163.4 396,147.7 372.7,150 388.4,132.7 386.1,109.3 403.4,125.1 426.8,122.8 411,140.1 
													"/>
					</g>
				</g>
			</g>
		</g>
	</g>
	<g>
		<polygon class="st4" points="582.2,437.9 788.4,524.8 728.5,555.4 778.9,607.8 744.8,640.7 694.3,588.3 661.4,647.2 		"/>
		<polygon class="st5" points="773.9,525.3 593,449.1 662.5,632.7 693,578.1 744.9,632 770.2,607.6 718.3,553.7 		"/>
	</g>
</g>
<g>
	<path class="st1" d="M186.8,687l-33.9,109.8h-26.6l-21.1-53l-20.7,53H57.9L23.6,687H56l17.8,63.3l26.2-62.7h10.5l26.6,62.8
		l17.5-63.3H186.8z"/>
	<path class="st1" d="M276,753.6c0,2.6-0.2,5.1-0.6,7.7h-62.9c1.9,9.7,8.1,14.7,17.3,14.7c6.8,0,12.5-3,15.3-7.9h29
		c-6,19.3-23.1,31.4-44.3,31.4c-26.4,0-46-19.3-46-45.2c0-26,19.4-45.1,46-45.1C257.1,709.3,276,728.8,276,753.6L276,753.6z
		 M213,745.2h34.2c-2.6-8.5-8.7-13-17.5-13C221.3,732.1,215.3,736.8,213,745.2z"/>
	<path class="st1" d="M339.1,709.4c26.1,0,44.5,18.7,44.5,45.1c0,26.3-18.4,45.1-44.5,45.1c-9.9,0-18.7-3.3-25.5-9.1l-2.8,6.3h-21.6
		V681.5h28.8v33.8C324.1,711.5,331.3,709.4,339.1,709.4L339.1,709.4z M354.2,754.5c0-11.1-8-19.3-19-19.3c-10.9,0-19,8.3-19,19.3
		c0,11,8,19.2,19,19.2C346.1,773.7,354.2,765.4,354.2,754.5z"/>
	<path class="st1" d="M451.1,799.5c-33.4,0-58.4-24.7-58.4-57.6c0-33,25-57.8,58.4-57.8c28.8,0,51.1,19,55.5,46.8h-30.6
		c-3.8-11.3-13.3-18.6-24.8-18.6c-15.5,0-26.9,12.5-26.9,29.5c0,16.9,11.4,29.3,26.9,29.3c12.2,0,21.8-7.9,24.8-20.1h30.9
		C502.7,779.9,480.3,799.5,451.1,799.5L451.1,799.5z"/>
	<path class="st1" d="M515,754.4c0-26.3,19.9-45.1,47.5-45.1c27.5,0,47.5,18.9,47.5,45.1c0,26.2-20,45.1-47.5,45.1
		C534.9,799.5,515,780.6,515,754.4z M562.5,773.3c10.6,0,18.3-7.7,18.3-18.9c0-11.1-7.6-18.9-18.3-18.9c-10.6,0-18.3,7.7-18.3,18.9
		S551.8,773.3,562.5,773.3L562.5,773.3z"/>
	<path class="st1" d="M707.1,745.1v51.6H678v-47.6c0-9.9-3.7-14.7-11-14.7c-9.1,0-14.3,6.4-14.3,17.1v45.2h-29.2v-84.7h20.5l4,8.7
		c6.3-7,15.7-11.2,26.7-11.2C694.2,709.6,707.1,723.5,707.1,745.1z"/>
	<path class="st1" d="M781.1,771.2v25.5H761c-18.7,0-30.1-11.4-30.1-30.3v-32h-15.5v-6.8l37.9-40.4h6v24.8h21.3v22.5h-20.5v27
		c0,6.1,3.7,9.7,9.8,9.7H781.1z"/>
	<path class="st1" d="M884,712v84.7h-22.6l-2.5-6c-6.9,5.6-15.7,8.9-25.6,8.9c-25.9,0-44.4-18.9-44.4-45.2
		c0-26.2,18.5-44.9,44.4-44.9c10,0,18.9,3.3,25.9,9.1l3-6.5L884,712z M856.3,754.4c0-11-8-19.2-19-19.2c-11,0-19,8.3-19,19.2
		c0,11.1,8,19.3,19,19.3C848.3,773.7,856.3,765.4,856.3,754.4z"/>
	<path class="st1" d="M935.1,799.5c-23.1,0-37.1-12.2-37.4-30.5h28.1c0,6.2,4.3,9,9.8,9c4.3,0,8.3-2.2,8.3-6.6
		c0-4.9-6.4-6.3-14.5-7.6c-13.1-2.1-30.5-6.1-30.5-26.6c0-17,14.5-27.9,36.2-27.9c21.6,0,35.5,11.5,35.9,28.6h-27.3
		c0-5.4-3.6-7.9-8.9-7.9c-4.7,0-7.8,2.3-7.8,6.2c0,4.8,6.5,5.9,14.5,7.4c13.4,2.4,31.2,5.2,31.2,26.6
		C972.5,787.9,957.6,799.5,935.1,799.5L935.1,799.5z"/>
</g>
</svg>
